<svg xmlns="http://www.w3.org/2000/svg"
     fill="none" viewBox="0 0 1461 240">
    <path fill="#FF4F64" d="M67 126H44v68h23v-68ZM121 85H98v109h23V85ZM175 47h-23v147h23V47Z"/>
    <path fill="#415659"
          d="M274.65 177.1c-7.9 0-14.9-1.4-21-4.2-6.1-2.8-10.9-6.9-14.4-12.3-3.4-5.5-5.1-12.15-5.1-19.95v-3.75h16.05v3.75c0 7.4 2.2 12.95 6.6 16.65 4.5 3.7 10.45 5.55 17.85 5.55 7.5 0 13.15-1.55 16.95-4.65 3.8-3.2 5.7-7.3 5.7-12.3 0-3.3-.9-6-2.7-8.1-1.8-2.1-4.35-3.75-7.65-4.95-3.3-1.3-7.25-2.5-11.85-3.6l-5.55-1.35c-6.7-1.6-12.55-3.55-17.55-5.85-4.9-2.4-8.7-5.55-11.4-9.45-2.7-3.9-4.05-8.9-4.05-15 0-6.2 1.5-11.5 4.5-15.9 3.1-4.4 7.35-7.8 12.75-10.2 5.4-2.4 11.75-3.6 19.05-3.6 7.3 0 13.8 1.25 19.5 3.75 5.8 2.5 10.35 6.2 13.65 11.1 3.3 4.9 4.95 11.05 4.95 18.45v5.4H294.9v-5.4c0-4.5-.95-8.15-2.85-10.95-1.8-2.8-4.35-4.85-7.65-6.15-3.3-1.3-7.15-1.95-11.55-1.95-6.4 0-11.4 1.35-15 4.05-3.5 2.6-5.25 6.25-5.25 10.95 0 3.2.75 5.85 2.25 7.95 1.6 2 3.9 3.65 6.9 4.95 3 1.3 6.75 2.45 11.25 3.45l5.55 1.35c6.8 1.5 12.8 3.45 18 5.85 5.2 2.3 9.3 5.45 12.3 9.45 3 4 4.5 9.15 4.5 15.45 0 6.3-1.6 11.8-4.8 16.5-3.1 4.7-7.55 8.4-13.35 11.1-5.8 2.6-12.65 3.9-20.55 3.9ZM330.806 175v-73.95h15.45V175h-15.45Zm7.8-84c-3 0-5.55-.95-7.65-2.85-2-2-3-4.55-3-7.65 0-3.1 1-5.6 3-7.5 2.1-2 4.65-3 7.65-3 3.1 0 5.65 1 7.65 3 2 1.9 3 4.4 3 7.5 0 3.1-1 5.65-3 7.65-2 1.9-4.55 2.85-7.65 2.85ZM369.185 175v-73.95h15.15v8.7h2.4c1.4-2.6 3.65-4.9 6.75-6.9s7.3-3 12.6-3c5.5 0 9.9 1.15 13.2 3.45 3.4 2.2 5.95 5.05 7.65 8.55h2.4c1.7-3.4 4.15-6.25 7.35-8.55 3.3-2.3 7.95-3.45 13.95-3.45 4.8 0 9.05 1 12.75 3 3.7 1.9 6.65 4.8 8.85 8.7 2.2 3.8 3.3 8.55 3.3 14.25V175h-15.45v-48c0-4.5-1.25-7.95-3.75-10.35-2.4-2.5-5.85-3.75-10.35-3.75-4.8 0-8.65 1.55-11.55 4.65-2.9 3.1-4.35 7.55-4.35 13.35V175h-15.45v-48c0-4.5-1.25-7.95-3.75-10.35-2.4-2.5-5.85-3.75-10.35-3.75-4.8 0-8.65 1.55-11.55 4.65-2.9 3.1-4.35 7.55-4.35 13.35V175h-15.45ZM497.798 205V101.05h15.15v10.65h2.4c1.9-3.3 4.75-6.25 8.55-8.85 3.9-2.6 9.45-3.9 16.65-3.9 6.2 0 11.85 1.5 16.95 4.5 5.2 3 9.35 7.35 12.45 13.05 3.2 5.6 4.8 12.4 4.8 20.4v2.25c0 8-1.55 14.85-4.65 20.55-3.1 5.6-7.25 9.9-12.45 12.9-5.2 3-10.9 4.5-17.1 4.5-4.8 0-8.85-.6-12.15-1.8-3.3-1.2-5.95-2.7-7.95-4.5-2-1.9-3.6-3.85-4.8-5.85h-2.4V205h-15.45Zm38.25-41.4c6.8 0 12.35-2.15 16.65-6.45 4.3-4.3 6.45-10.45 6.45-18.45v-1.35c0-7.9-2.2-14-6.6-18.3-4.3-4.3-9.8-6.45-16.5-6.45-6.6 0-12.1 2.15-16.5 6.45-4.3 4.3-6.45 10.4-6.45 18.3v1.35c0 8 2.15 14.15 6.45 18.45 4.4 4.3 9.9 6.45 16.5 6.45ZM593.892 175V70h15.45v105h-15.45ZM666.171 177.1c-7.5 0-14.05-1.55-19.65-4.65-5.6-3.2-10-7.65-13.2-13.35-3.1-5.8-4.65-12.5-4.65-20.1v-1.8c0-7.7 1.55-14.4 4.65-20.1 3.1-5.8 7.4-10.25 12.9-13.35 5.6-3.2 12.05-4.8 19.35-4.8 7.1 0 13.3 1.6 18.6 4.8 5.4 3.1 9.6 7.45 12.6 13.05 3 5.6 4.5 12.15 4.5 19.65v5.85h-56.85c.2 6.5 2.35 11.7 6.45 15.6 4.2 3.8 9.4 5.7 15.6 5.7 5.8 0 10.15-1.3 13.05-3.9 3-2.6 5.3-5.6 6.9-9l12.75 6.6c-1.4 2.8-3.45 5.75-6.15 8.85-2.6 3.1-6.05 5.7-10.35 7.8-4.3 2.1-9.8 3.15-16.5 3.15Zm-21.6-46.65h40.95c-.4-5.6-2.4-9.95-6-13.05-3.6-3.2-8.3-4.8-14.1-4.8-5.8 0-10.55 1.6-14.25 4.8-3.6 3.1-5.8 7.45-6.6 13.05ZM747.947 175l30-105h28.5l29.85 105h-16.65l-6.9-24.75h-41.1l-6.9 24.75h-16.8Zm27.75-39.75h33l-15.3-55.2h-2.4l-15.3 55.2ZM850.972 175v-73.95h15.15v11.1h2.4c1.4-3 3.9-5.8 7.5-8.4 3.6-2.6 8.95-3.9 16.05-3.9 5.6 0 10.55 1.25 14.85 3.75 4.4 2.5 7.85 6.05 10.35 10.65 2.5 4.5 3.75 9.95 3.75 16.35V175h-15.45v-43.2c0-6.4-1.6-11.1-4.8-14.1-3.2-3.1-7.6-4.65-13.2-4.65-6.4 0-11.55 2.1-15.45 6.3-3.8 4.2-5.7 10.3-5.7 18.3V175h-15.45ZM966.207 177.1c-5.3 0-10.05-.9-14.25-2.7-4.1-1.8-7.4-4.45-9.9-7.95-2.4-3.5-3.6-7.75-3.6-12.75 0-5.1 1.2-9.3 3.6-12.6 2.5-3.4 5.85-5.95 10.05-7.65 4.3-1.7 9.15-2.55 14.55-2.55h22.5v-4.8c0-4.3-1.3-7.75-3.9-10.35-2.6-2.6-6.6-3.9-12-3.9-5.3 0-9.35 1.25-12.15 3.75-2.8 2.5-4.65 5.75-5.55 9.75l-14.4-4.65c1.2-4 3.1-7.6 5.7-10.8 2.7-3.3 6.25-5.95 10.65-7.95s9.7-3 15.9-3c9.6 0 17.15 2.45 22.65 7.35 5.503 4.9 8.253 11.85 8.253 20.85v30.45c0 3 1.4 4.5 4.2 4.5h6.3V175h-11.55c-3.503 0-6.353-.9-8.553-2.7-2.2-1.8-3.3-4.25-3.3-7.35v-.45h-2.25c-.8 1.5-2 3.25-3.6 5.25s-3.95 3.75-7.05 5.25c-3.1 1.4-7.2 2.1-12.3 2.1Zm2.25-12.75c6.2 0 11.2-1.75 15-5.25 3.8-3.6 5.7-8.5 5.7-14.7v-1.5h-21.6c-4.1 0-7.4.9-9.9 2.7-2.5 1.7-3.75 4.25-3.75 7.65 0 3.4 1.3 6.1 3.9 8.1 2.6 2 6.15 3 10.65 3ZM1029.83 175V70h15.45v105h-15.45ZM1076.76 205v-13.5h41.25c2.8 0 4.2-1.5 4.2-4.5v-22.8h-2.4c-.9 2-2.3 3.95-4.2 5.85-1.8 1.8-4.25 3.3-7.35 4.5-3.1 1.2-7 1.8-11.7 1.8-5.6 0-10.6-1.25-15-3.75s-7.85-6.05-10.35-10.65c-2.5-4.6-3.75-10.05-3.75-16.35v-44.55h15.45v43.35c0 6.4 1.6 11.15 4.8 14.25 3.2 3 7.65 4.5 13.35 4.5 6.3 0 11.35-2.1 15.15-6.3 3.9-4.2 5.85-10.3 5.85-18.3v-37.5h15.45v89.1c0 4.5-1.35 8.1-4.05 10.8-2.6 2.7-6.2 4.05-10.8 4.05h-45.9ZM1188.1 175c-4.5 0-8.1-1.35-10.8-4.05-2.6-2.7-3.9-6.3-3.9-10.8V114.1H1153v-13.05h20.4V76.6h15.45v24.45h22.05v13.05h-22.05v43.35c0 3 1.4 4.5 4.2 4.5h15.45V175h-20.4ZM1229.05 175v-73.95h15.45V175h-15.45Zm7.8-84c-3 0-5.55-.95-7.65-2.85-2-2-3-4.55-3-7.65 0-3.1 1-5.6 3-7.5 2.1-2 4.65-3 7.65-3 3.1 0 5.65 1 7.65 3 2 1.9 3 4.4 3 7.5 0 3.1-1 5.65-3 7.65-2 1.9-4.55 2.85-7.65 2.85ZM1301.78 177.1c-7.1 0-13.55-1.5-19.35-4.5-5.7-3-10.25-7.35-13.65-13.05-3.3-5.7-4.95-12.55-4.95-20.55v-1.95c0-8 1.65-14.8 4.95-20.4 3.4-5.7 7.95-10.05 13.65-13.05 5.8-3.1 12.25-4.65 19.35-4.65 7.1 0 13.15 1.3 18.15 3.9 5 2.6 9 6.05 12 10.35 3.1 4.3 5.1 9.05 6 14.25l-15 3.15c-.5-3.3-1.55-6.3-3.15-9-1.6-2.7-3.85-4.85-6.75-6.45-2.9-1.6-6.55-2.4-10.95-2.4-4.3 0-8.2 1-11.7 3-3.4 1.9-6.1 4.7-8.1 8.4-2 3.6-3 8-3 13.2v1.35c0 5.2 1 9.65 3 13.35 2 3.7 4.7 6.5 8.1 8.4 3.5 1.9 7.4 2.85 11.7 2.85 6.5 0 11.45-1.65 14.85-4.95 3.4-3.4 5.55-7.7 6.45-12.9l15 3.45c-1.2 5.1-3.35 9.8-6.45 14.1-3 4.3-7 7.75-12 10.35-5 2.5-11.05 3.75-18.15 3.75ZM1386.5 177.1c-9.4 0-17.2-2.1-23.4-6.3-6.2-4.2-10-10.55-11.4-19.05l14.4-3.45c.8 4.1 2.15 7.35 4.05 9.75 1.9 2.4 4.25 4.1 7.05 5.1 2.9 1 6 1.5 9.3 1.5 4.9 0 8.65-.95 11.25-2.85 2.7-1.9 4.05-4.35 4.05-7.35s-1.25-5.2-3.75-6.6c-2.5-1.4-6.2-2.55-11.1-3.45l-5.1-.9c-5-.9-9.55-2.2-13.65-3.9-4.1-1.7-7.35-4.05-9.75-7.05-2.4-3-3.6-6.85-3.6-11.55 0-7 2.6-12.4 7.8-16.2 5.2-3.9 12.1-5.85 20.7-5.85 8.3 0 15.1 1.9 20.4 5.7 5.4 3.7 8.9 8.75 10.5 15.15l-14.4 4.05c-.9-4.5-2.8-7.65-5.7-9.45-2.9-1.9-6.5-2.85-10.8-2.85-4.2 0-7.5.8-9.9 2.4-2.4 1.5-3.6 3.65-3.6 6.45 0 3 1.15 5.2 3.45 6.6 2.4 1.4 5.6 2.45 9.6 3.15l5.25.9c5.3.9 10.15 2.15 14.55 3.75s7.85 3.9 10.35 6.9c2.6 3 3.9 7 3.9 12 0 7.4-2.75 13.15-8.25 17.25s-12.9 6.15-22.2 6.15Z"/>
</svg>
